<svg id="_10" data-name="10" xmlns="http://www.w3.org/2000/svg" viewBox="0 0 512 512"><defs><style>.cls-1{fill:#fff;}</style></defs><path class="cls-1" d="M175.59,409.73H336.41a70.18,70.18,0,0,0,70.08-70.12V172.39a70.18,70.18,0,0,0-70.08-70.12H175.59a70.19,70.19,0,0,0-70.12,70.12V339.61A70.19,70.19,0,0,0,175.59,409.73ZM357.94,131.87a22.19,22.19,0,1,1-22.19,22.19A22.17,22.17,0,0,1,357.94,131.87ZM256,157a99.05,99.05,0,1,1-99,99A99.16,99.16,0,0,1,256,157Z"/><path class="cls-1" d="M256,324.17A68.17,68.17,0,1,0,187.83,256,68.28,68.28,0,0,0,256,324.17Z"/><path class="cls-1" d="M403.29,0H108.71A108.7,108.7,0,0,0,0,108.71V403.29A108.7,108.7,0,0,0,108.71,512H403.29A108.7,108.7,0,0,0,512,403.29V108.71A108.7,108.7,0,0,0,403.29,0ZM66.88,172.39A108.7,108.7,0,0,1,175.59,63.68H336.41A108.69,108.69,0,0,1,445.08,172.39V339.61A108.69,108.69,0,0,1,336.41,448.32H175.59A108.7,108.7,0,0,1,66.88,339.61V172.39Z"/></svg>