<svg xmlns="http://www.w3.org/2000/svg" viewBox="0 0 354.78 54.36"><defs><style>.cls-1{fill:#fff;}</style></defs><g id="レイヤー_2" data-name="レイヤー 2"><g id="レイヤー_1-2" data-name="レイヤー 1"><path class="cls-1" d="M45,48.78c1.32-2,3.12-4.32,4.08-4.32,1.26,0,5.82,3.72,5.82,5.28,0,.84-1,1.44-3.48,1.44H1.32C.54,51.18,0,50.94,0,50s.54-1.2,1.32-1.2H18.9V35.34H11.34v2.4c0,1.26-1,1.86-2.82,1.86A1.48,1.48,0,0,1,6.84,38c0-3.72.36-16.74-.24-22.08-.12-.6.42-.9.9-.84a17.57,17.57,0,0,1,5.22,2.46H19V6.72H3.06c-.78,0-1.32-.24-1.32-1.2s.54-1.2,1.32-1.2H43.2C44.52,2.34,46.32,0,47.28,0c1.26,0,5.82,3.72,5.82,5.28,0,.84-1.08,1.44-3.48,1.44H36.54c.24.18.42.36.42.6,0,.6-.36,1-1.14,1.26v8.94h7c.9-1.2,2.1-2.52,2.76-2.52,1.2,0,4.74,2.64,4.74,4,0,.78-1,1.32-2,1.74-.12,4.38.06,13.56.06,15.72,0,1.86-1,2.28-2.64,2.28a1.8,1.8,0,0,1-1.86-2V35.34h-8V48.78ZM18.9,32.94l.06-13H12.42a5.08,5.08,0,0,1-1,.24c-.12,1.68-.12,6.78-.12,7.92l.06,4.86Zm4.26-15.42h8.46V6.72H23.88c.24.18.42.36.42.6,0,.6-.36,1-1.14,1.26Zm8.46,2.4H23.16v13h8.4ZM23.16,48.78h8.4V35.34h-8.4ZM35.82,19.92v13h8.1c0-4,.06-10.14.06-13Z"/><path class="cls-1" d="M72.48,25.38c0,8.64.12,15.12.18,19.68a126.74,126.74,0,0,0,14.16-4c2.52-.9,3.12,1.08.78,2.28-5,2.52-11.82,5.1-23.46,7.92-.24,1.38-.78,2.7-1.8,2.7-1.26,0-2.28-2.76-2.82-6-.06-.54.18-.72.66-.78,2.94-.36,5.64-.78,8.16-1.26.06-3.9.12-11.16.12-19.38,0-7.32-.18-18.06-.78-23.52a.69.69,0,0,1,.78-.84c3.78,0,7.26.36,7.26,1.86,0,1-1.2,1.68-3.12,2.1-.12,2.94-.12,9.84-.12,15.24h8c1.26-1.86,2.82-4,3.72-4,1.2,0,5.1,3.66,5.1,5,0,.9-1.26,1.38-2.94,1.38H72.48Zm23.28,20c0,3.18.54,3.66,7.68,3.66,6.3,0,7.32-.84,7.92-2.1a25.83,25.83,0,0,0,1.14-3c.42-1,1.44-1,1.56.06.12.6.24,1.92.36,2.64.3,1.74,1.26,1.5,1.26,2.82s-1.8,3.6-12.12,3.6c-10.5,0-12-1.62-12-6.54,0-2.52.48-37.2-.42-43.86C91,1.8,91.2,1.5,92.22,1.5c4.56,0,6.72.6,6.72,1.86s-1.62,1.86-3,2c-.06,1.44-.12,10.92-.12,20.28C101,22.26,105,18.78,108,14.22c.42-.66.84-.9,1.5-.54,2.1,1,4.68,3.36,4.38,4.68-.24.9-1.32.9-3,.24a51.78,51.78,0,0,1-15.06,9.84Z"/><path class="cls-1" d="M170.1,16.2c1-1.68,2.22-3.3,2.94-3.3,1.08,0,3.84,3.36,3.84,4.5,0,.9-1,1.2-2,1.2h-6.06c0,3.72.06,7.38.06,8.58,0,1.86-.9,2.28-2.46,2.28-1.38,0-1.74-1.08-1.74-2v-.06h-9.18l.06,6.06h8.28c1.2-1.74,2.64-3.66,3.48-3.66,1.08,0,5,3.42,5,4.8,0,.84-1,1.26-3,1.26h-13.8l.06,6.3h10.08c1.26-1.92,2.88-4.08,3.78-4.08,1.26,0,5.34,3.66,5.34,5.1,0,.9-1.14,1.38-3.12,1.38h-16c0,3.66.06,6.66.06,7.56,0,1.38-.84,2.16-2.76,2.16a1.64,1.64,0,0,1-1.8-1.8c0-1,.06-4.14.18-7.92h-15.6c-.78,0-1.32-.24-1.32-1.2s.54-1.2,1.32-1.2h15.66l.18-6.3H138.18c-.78,0-1.32-.24-1.32-1.2s.54-1.2,1.32-1.2h13.44c.06-2.52.12-4.68.12-5.82v-.24H138.6c-.78,0-1.32-.24-1.32-1.2s.54-1.2,1.32-1.2h13.14V18.6H139c-.78,0-1.32-.24-1.32-1.2a3.49,3.49,0,0,1-1.32-.12c-1.14,1.62-2.7,3.84-4.62,6.18,1.38.66,2.88,1.56,2.88,2.28s-1,1.14-2.22,1.32c-.18,2.34-.18,9.84-.18,11.52l.06,13.86c0,1.32-.84,1.92-2.64,1.92A1.48,1.48,0,0,1,128,52.68c.06-3.48.3-17.7.06-25a50.11,50.11,0,0,1-7.56,6.6c-1.5,1.08-2.64-.24-1.32-1.56,6.12-6.12,11-13.2,13.5-19.44.3-.6.48-.9,1.2-.66,1.74.54,5.1,2.34,5.4,3.54h12.48c-.06-1.8-.12-3.72-.18-5.52H139.44c-.78,0-1.32-.24-1.32-1.2s.54-1.2,1.32-1.2H151.5a59.08,59.08,0,0,0-.6-7.08c-.12-.54.24-.84.78-.84,3.84,0,7,.36,7,1.8,0,1-1.2,1.68-3.06,2,0,.9-.06,2.34-.06,4.08h8c.9-1.26,2.16-2.76,2.88-2.76,1.26,0,4.8,2.7,4.8,4.08,0,.9-1.2,1.44-2.4,1.86V16.2Zm-49.68-1.44c5.34-4.26,9.48-9.12,11.76-14,.3-.54.66-.84,1.26-.6,1.92.72,5.34,2.76,5.22,4-.12,1-1.38,1.2-3.06.78-2.4,2.88-7.62,8.46-13.92,11.64C120.12,17.34,119.16,16,120.42,14.76Zm35,1.44h9.3V10.68h-9.24Zm9.24,2.4h-9.24V25h9.18Z"/><path class="cls-1" d="M191.16,37.62c2.16-.78,4.2-1.56,6.06-2.34,2.1-.78,2.82.66,1,2-4,2.82-9.48,5.16-14.46,7.2-.24,1.56-.72,3-1.74,3-1.26,0-2-2.34-2.46-5.46a.66.66,0,0,1,.66-.84c2.4-.66,4.68-1.38,6.84-2.1V23.94h-5.22c-.78,0-1.32-.24-1.32-1.2s.54-1.2,1.32-1.2h5.22V7.86h-5.7c-.78,0-1.32-.24-1.32-1.2s.54-1.2,1.32-1.2h10c1.08-1.56,2.34-3.24,3.06-3.24,1.08,0,4.38,3.24,4.44,4.44,0,.84-1.08,1.2-2.52,1.2H192.3c-.12.48-.48.78-1.14,1.08v12.6h.78c1-1.56,2.16-3.06,2.82-3.06,1,0,4,3.18,4,4.32,0,.84-1,1.14-2.16,1.14h-5.4Zm18.42-25.68c.84-1.14,2-2.34,2.64-2.34,1.26,0,4.32,2.52,4.32,3.72,0,.72-.84,1.38-1.8,1.86.06,6-.3,25-1.5,30.48-1,5.1-3.66,6.78-6.66,6.78-1,0-1.26-.48-1.68-1.5a2.63,2.63,0,0,0-2-1.62c-1.44-.36-1.14-1.8.06-1.68,1,.06,2.76.18,3.48.18,1.14,0,2-.18,2.7-2.76,1.44-4.86,2-23.58,1.44-30.72h-4.32c-.06,3.36-.12,6.66-.3,9.84C205.5,33.6,204,45.6,192.18,53.46c-1.44,1-2.76-.24-1.38-1.62,7.8-7.56,10.62-14,11.16-29.28.06-2.4.12-5.22.12-8.22H196.2c-.78,0-1.32-.24-1.32-1.2s.54-1.2,1.32-1.2H202c-.06-3.36-.24-6.78-.54-9.84-.06-.66.24-1,.84-1,1.74.06,6.54.54,6.48,1.92,0,.9-1.14,1.26-2.58,1.5v7.38ZM227,8.46c.84-1.2,2-2.52,2.64-2.52,1.14,0,4.62,2.58,4.62,3.9,0,.78-1,1.32-2,1.8-.36,7.32.18,32.1.18,36.12,0,1.86-1,2.28-2.64,2.28-1.38,0-1.8-1.08-1.8-2V45.48h-5.94V49.8c0,1.32-.84,2-2.64,2-1.08,0-1.56-.6-1.56-1.74,0-6.72.66-34.68-.24-43a.74.74,0,0,1,.84-.78,13.27,13.27,0,0,1,4.92,2.1Zm1,34.62c.06-8.88.18-26.82.12-32.22h-6c-.24,3.84-.24,15.42-.24,17.7,0,1.5.06,8.82.06,14.52Z"/><path class="cls-1" d="M251.88,34.62c2.28-.84,4.38-1.68,6.36-2.46s2.82.72,1,2c-4.26,2.88-10,5.28-15.78,7.5-.24,1.5-.72,2.94-1.74,2.94-1.26,0-2.1-2.34-2.52-5.46a.66.66,0,0,1,.66-.84c2.82-.72,5.52-1.5,8-2.28V22.62H242c-.78,0-1.32-.24-1.32-1.2s.54-1.2,1.32-1.2h5.76v-12h-6.42c-.78,0-1.32-.24-1.32-1.2s.54-1.2,1.32-1.2H254c1.08-1.56,2.34-3.24,3.12-3.24,1,0,4.38,3.24,4.44,4.44,0,.84-1.08,1.2-2.58,1.2H253c0,.54-.36,1-1.14,1.26V20.22h1.8c1-1.5,2.1-2.94,2.7-2.94,1,0,3.9,3.06,3.9,4.2,0,.84-1,1.14-2.16,1.14h-6.24Zm17-22.44c-.12-3.6-.3-7.08-.6-9.66-.12-.66.24-1,1-1,2.94,0,6.66.48,6.66,1.92,0,.9-1.2,1.5-2.76,1.8.06,6.3,0,14.64-.06,22.74-.12,14.16-3.3,21.3-19.68,26.16-1.68.48-2.64-1.38-.78-2.1,9.72-4.2,14.1-8.46,15.66-15.78-2.88,1.68-6.24,3.12-8.4,4.26-.18,1.56-.72,3.12-1.74,3.12-1.26,0-2.16-2.1-2.7-5.28a.66.66,0,0,1,.66-.84c4.44-1.44,9.18-3,12.66-4.32a48.47,48.47,0,0,0,.3-5.34V26.16h-8.88c-.78,0-1.32-.24-1.32-1.2s.54-1.2,1.32-1.2H269c0-2.82-.06-6-.12-9.18h-9.24c-.78,0-1.32-.24-1.32-1.2s.54-1.2,1.32-1.2ZM287.64,36.6c1.2-1.68,2.58-3.6,3.42-3.66,1.14.06,5.1,3.42,5.16,4.8,0,.84-1.14,1.26-3.06,1.26h-10.8c.06,5.82.12,11.76.12,13.08s-.84,2.1-2.76,2.1a1.64,1.64,0,0,1-1.8-1.8c0-2.64.54-19.92.54-24.18,0-2.64.24-19.86-.78-25.8a.69.69,0,0,1,.78-.84c3.84,0,7,.36,7,1.8,0,1-1.26,1.68-3.12,2-.06,1.38-.06,4-.06,6.9H287c1.14-1.62,2.58-3.48,3.36-3.48,1.08,0,4.92,3.3,4.92,4.62.06.84-1.08,1.26-2.94,1.26H282.24v9.18h4.68c1.14-1.68,2.46-3.48,3.3-3.48,1.08,0,4.74,3.36,4.8,4.62,0,.84-1.14,1.26-2.82,1.26h-10V27c0,1.62.06,5.4.06,9.6Z"/><path class="cls-1" d="M344.94,8.46c1.32-2,3.06-4.32,4-4.32,1.26,0,5.82,3.72,5.82,5.28,0,.84-1.08,1.44-3.48,1.44H310.86c.12,4.8,0,9.12-.18,14.4-.3,8.94-1.68,19.68-10.26,26.64-1.38,1.26-2.88.06-1.68-1.5,5.22-6.9,7.44-13.8,7.56-26.64,0-5.16-.18-11.1-.54-16.56-.12-1,.3-1.26,1.08-1.14a15.77,15.77,0,0,1,5,2.4h14a70,70,0,0,0-.18-7.32.75.75,0,0,1,.84-.9c1,0,7.08.18,7.08,1.8,0,1.26-1.32,1.74-3.18,2.16V8.46Zm-2.4,12.9c1.32-2,3.06-4.32,4.08-4.32,1.26,0,5.64,3.78,5.64,5.28,0,.9-1.26,1.44-3.36,1.44H331.74v9.9h8.94c.9-1.14,2-2.34,2.64-2.34,1.26,0,4.92,2.7,4.92,4,0,.84-1,1.38-2.1,1.8-.18,4.32,0,12.48,0,14.7,0,1.86-1,2.28-2.7,2.28a1.85,1.85,0,0,1-1.92-2V49.62H319.86v2.82c0,1.26-1,1.86-2.76,1.86a1.48,1.48,0,0,1-1.68-1.62c0-4,.36-14.94-.24-20.4a.72.72,0,0,1,.84-.78,14.21,14.21,0,0,1,5.28,2.16h6.3c.12-6.6,0-17-.48-20.7-.06-.54.3-.84.84-.84,1,0,7,.18,7,1.74,0,1.32-1.32,1.8-3.18,2.22v5.28Zm-1,25.86c0-3.84.06-8.82.06-11.16H320.58c-.24.06-.42.06-.66.12-.06,1.56-.06,6.24-.06,7.32v3.72Z"/></g></g></svg>