<svg id="_10" data-name="10" xmlns="http://www.w3.org/2000/svg" viewBox="0 0 512 512"><defs><style>.cls-1{fill:#fff;}</style></defs><path class="cls-1" d="M256,0C114.56,0,0,114.64,0,256S114.56,512,256,512,512,397.36,512,256,397.36,0,256,0Zm5.84,222.71H262a53.3,53.3,0,0,1-1.44-12.48,54.79,54.79,0,0,1,94.8-37.44,109.37,109.37,0,0,0,28.94-10.19c1.95-1,3.89-1.93,5.79-3a54.61,54.61,0,0,1-17.56,25.47,51.17,51.17,0,0,1-6.46,4.52l.29,0c-.09.06-.18.14-.28.2a108.87,108.87,0,0,0,25.71-6.28c1.87-.66,3.74-1.34,5.59-2.09a110.81,110.81,0,0,1-27.22,28.13c.16,2.4.16,4.72.16,7.12,0,72.4-55.12,155.92-155.92,155.92a154.61,154.61,0,0,1-84-24.64,117.9,117.9,0,0,0,13.12.8,109.46,109.46,0,0,0,51.71-12.94c.33-.18.67-.32,1-.5,1-.54,1.93-1.15,2.89-1.71a115.15,115.15,0,0,0,12.4-8.21l-.19,0,.19-.14a54.84,54.84,0,0,1-47.92-30.06,55.47,55.47,0,0,1-3.18-7.92,52.43,52.43,0,0,0,20.77-.18c1.3-.21,2.61-.37,3.9-.64-.11,0-.2-.07-.3-.09l.33-.07a54.84,54.84,0,0,1-44-53.75v-.64a54.75,54.75,0,0,0,19.15,6.28c1.87.29,3.75.53,5.64.65l-.21-.16.3,0a54.42,54.42,0,0,1-18.73-69.58c.6-1.16,1.13-2.36,1.81-3.48a155.28,155.28,0,0,0,111.18,57c.53,0,1.05.14,1.59.17A.09.09,0,0,1,261.84,222.71Z"/></svg>